<svg xmlns="http://www.w3.org/2000/svg" version="1.1" xmlns:xlink="http://www.w3.org/1999/xlink" xmlns:svgjs="http://svgjs.com/svgjs" width="1920" height="1080" preserveAspectRatio="none" viewBox="0 0 1920 1080"><g mask="url(&quot;#SvgjsMask1041&quot;)" fill="none"><rect width="1920" height="1080" x="0" y="0" fill="rgba(14, 42, 71, 0.26)"></rect><path d="M57 1080L1137 0L1573.5 0L493.5 1080z" fill="url(#SvgjsLinearGradient1042)"></path><path d="M645.6 1080L1725.6 0L2480.1 0L1400.1 1080z" fill="url(#SvgjsLinearGradient1042)"></path><path d="M1872 1080L792 0L151.5 0L1231.5 1080z" fill="url(#SvgjsLinearGradient1043)"></path><path d="M1207.4 1080L127.40000000000009 0L-766.5999999999999 0L313.4000000000001 1080z" fill="url(#SvgjsLinearGradient1043)"></path><path d="M1346.2639372529006 1080L1920 506.2639372529005L1920 1080z" fill="url(#SvgjsLinearGradient1042)"></path><path d="M0 1080L573.7360627470995 1080L 0 506.2639372529005z" fill="url(#SvgjsLinearGradient1043)"></path></g><defs><mask id="SvgjsMask1041"><rect width="1920" height="1080" fill="#ffffff"></rect></mask><linearGradient x1="0%" y1="100%" x2="100%" y2="0%" id="SvgjsLinearGradient1042"><stop stop-color="rgba(15, 70, 185, 0.2)" offset="0"></stop><stop stop-opacity="0" stop-color="rgba(15, 70, 185, 0.2)" offset="0.66"></stop></linearGradient><linearGradient x1="100%" y1="100%" x2="0%" y2="0%" id="SvgjsLinearGradient1043"><stop stop-color="rgba(15, 70, 185, 0.2)" offset="0"></stop><stop stop-opacity="0" stop-color="rgba(15, 70, 185, 0.2)" offset="0.66"></stop></linearGradient></defs></svg>