<svg xmlns="http://www.w3.org/2000/svg" version="1.1" xmlns:xlink="http://www.w3.org/1999/xlink" xmlns:svgjs="http://svgjs.com/svgjs" width="1920" height="1080" preserveAspectRatio="none" viewBox="0 0 1920 1080"><g mask="url(&quot;#SvgjsMask1380&quot;)" fill="none"><rect width="1920" height="1080" x="0" y="0" fill="url(#SvgjsLinearGradient1381)"></rect><path d="M 0,443 C 76.8,383.8 230.4,147.6 384,147 C 537.6,146.4 614.4,442.4 768,440 C 921.6,437.6 998.4,130.6 1152,135 C 1305.6,139.4 1382.4,470 1536,462 C 1689.6,454 1843.2,168.4 1920,95L1920 1080L0 1080z" fill="rgba(24, 74, 126, 0.1)"></path><path d="M 0,777 C 128,789.6 384,862.6 640,840 C 896,817.4 1024,661.8 1280,664 C 1536,666.2 1792,813.6 1920,851L1920 1080L0 1080z" fill="rgba(34, 100, 171, 0.12)"></path></g><defs><mask id="SvgjsMask1380"><rect width="1920" height="1080" fill="#ffffff"></rect></mask><linearGradient x1="89.06%" y1="-19.44%" x2="10.94%" y2="119.44%" gradientUnits="userSpaceOnUse" id="SvgjsLinearGradient1381"><stop stop-color="rgba(14, 42, 71, 0.11)" offset="0"></stop><stop stop-color="rgba(0, 69, 158, 0.16)" offset="1"></stop></linearGradient></defs></svg>